<svg width="156" height="161" viewBox="0 0 156 161" xmlns="http://www.w3.org/2000/svg"><title>Page 1</title><g stroke-linecap="round" stroke-width="2" fill="none" fill-rule="evenodd"><path d="M96.216 16.907c-4.37-4.265-10.155-6.493-16.113-6.538m-6.985 1.093c-5.93 2.033-10.235 6.833-10.235 13.835 0 6.945 4.53 10.515 10.17 12.958m7.042 2.522l.09.03c10.038 3.212 17.034 6.86 17.034 17.245 0 9.638-7.597 15.4-16.996 16.16m-7.107-.43c-4.076-.865-7.765-2.802-10.385-5.675M79.975 1.055V82.635M154.178 155.903c-3.638 2.67-8.44 4.007-14.41 4.007-3.353 0-6.38-.626-9.08-1.876a22.885 22.885 0 0 1-7.076-5.073c-2.02-2.13-3.666-4.616-4.945-7.46a35.74 35.74 0 0 1-2.686-9.037l-.34-2.558c-.115-.682-.185-1.535-.213-2.557a94.32 94.32 0 0 1-.043-2.73c0-.965.028-2.045.085-3.24.055-1.193.14-2.216.255-3.068l.426-2.56c.74-3.806 1.89-7.173 3.455-10.102 1.562-2.927 3.41-5.385 5.54-7.375 2.133-1.99 4.52-3.48 7.164-4.476 2.642-.994 5.47-1.492 8.482-1.492 2.33 0 4.575.243 6.736.724 2.16.484 4.035 1.15 5.627 2.003M104.366 122.205h-.858H107.715M104.366 137.35h4.1M115.75 122.205H139.17M116.503 137.35h19.628M1 125.71h3.412M11.885 125.71h15.17" stroke="#C5A067"/><path d="M41.493 146.914c0 2.29-.376 4.244-1.13 5.868-.75 1.625-1.802 2.974-3.148 4.05-1.345 1.075-2.93 1.864-4.755 2.367-1.825.502-3.81.754-5.952.754L2.798 160c1.61 0 2.985-.302 4.127-.908a7.988 7.988 0 0 0 2.848-2.53c.757-1.082 1.312-2.355 1.666-3.82.354-1.47.53-3.062.53-4.785L11.996 116c0-2.83.33-5.45.996-7.86.664-2.41 1.706-4.5 3.126-6.277 1.418-1.778 3.2-3.164 5.345-4.157 2.144-.994 4.726-1.49 7.747-1.49 4.772 0 8.7 1.45 11.78 4.348" stroke="#C49F66"/></g></svg>