<svg width="165" height="165" viewBox="0 0 165 165" xmlns="http://www.w3.org/2000/svg"><title>icon3</title><g fill="none" fill-rule="evenodd"><path d="M78.39 63.425l.418 13.407L54.364 93.37v6.042l24.82-10.48.43 13.818-2.9 2.746v2.916l5.374-2.28 5.374 2.28v-2.916l-2.9-2.746.43-13.817 24.82 10.48v-6.044L85.367 76.83l.416-13.407c0-1.39-1.568-3.862-3.485-3.862h-.424c-1.917 0-3.485 2.47-3.485 3.862" fill="#C5A067"/><path d="M26.35 163a1 1 0 0 1-1-1v-2.916a1 1 0 0 1 .313-.726l2.572-2.438-.37-11.91L4.39 153.92a.998.998 0 0 1-.942-.088A1 1 0 0 1 3 153v-6.043a1 1 0 0 1 .44-.828l23.988-16.23-.4-12.856c-.002-1.95 2.01-4.893 4.485-4.893h.42c2.478 0 4.487 2.943 4.487 4.863l-.4 12.888 23.988 16.23a1 1 0 0 1 .44.827V153a1.003 1.003 0 0 1-1 1 .994.994 0 0 1-.39-.078l-23.477-9.913-.367 11.91 2.572 2.438a1 1 0 0 1 .314.726L38.096 162a1 1 0 0 1-1.39.92l-4.984-2.113-4.983 2.113a.99.99 0 0 1-.39.08" fill="#FEFEFE"/><path d="M31.935 111.152h-.423c-3.182 0-5.485 3.5-5.485 5.862v.062l.383 12.306-23.53 15.92c-.55.37-.88.99-.88 1.655V153a2.003 2.003 0 0 0 2 2c.263 0 .528-.05.778-.157l22.133-9.345.312 10.006-2.248 2.13c-.4.376-.625.9-.625 1.45V162a2 2 0 0 0 2.78 1.842l4.593-1.95 4.594 1.95a2 2 0 0 0 2.78-1.842v-2.915c0-.55-.225-1.075-.624-1.452l-2.247-2.13.31-10.005 22.133 9.345a1.993 1.993 0 0 0 1.883-.175c.558-.37.894-.997.894-1.667v-6.043c0-.664-.33-1.284-.88-1.656l-23.53-15.918.382-12.306v-.062c0-2.36-2.303-5.862-5.485-5.862m0 2c1.917 0 3.485 2.47 3.485 3.862l-.416 13.407 24.443 16.537V153l-24.82-10.48-.428 13.818 2.898 2.747V162l-5.375-2.28L26.35 162v-2.915l2.9-2.747-.43-13.817L4 153v-6.043l24.443-16.536-.416-13.406c0-1.392 1.568-3.862 3.485-3.862h.423" fill="#C5A067"/><path d="M137.462 163a.988.988 0 0 1-.39-.08l-4.984-2.113-4.984 2.113a.99.99 0 0 1-.943-.086 1 1 0 0 1-.447-.834v-2.916c0-.274.113-.537.312-.726l2.574-2.438-.37-11.91-23.477 9.912a1 1 0 0 1-1.39-.922v-6.043a1 1 0 0 1 .44-.828l23.988-16.23-.4-12.856c0-1.95 2.01-4.893 4.486-4.893h.423c2.474 0 4.484 2.943 4.484 4.863l-.4 12.888 23.988 16.23a1 1 0 0 1 .44.827V153a1 1 0 0 1-1.39.922l-23.476-9.913-.37 11.91 2.573 2.438a1 1 0 0 1 .312.726V162a1 1 0 0 1-1 1" fill="#FEFEFE"/><path d="M132.3 111.152h-.424c-3.182 0-5.485 3.5-5.485 5.862 0 .02 0 .04.002.062l.382 12.306-23.53 15.92c-.55.37-.88.99-.88 1.655V153a2.003 2.003 0 0 0 2 2c.263 0 .528-.05.778-.157l22.133-9.345.31 10.006-2.247 2.13c-.4.376-.625.9-.625 1.45V162a2 2 0 0 0 2.78 1.842l4.595-1.95 4.593 1.95a2 2 0 0 0 2.782-1.842v-2.915c0-.55-.226-1.075-.625-1.452l-2.247-2.13.31-10.005 22.133 9.345a1.993 1.993 0 0 0 1.884-.175c.558-.37.894-.997.894-1.667v-6.043c0-.664-.328-1.284-.878-1.656l-23.53-15.918.38-12.306c.002-.02.002-.042.002-.062 0-2.36-2.303-5.862-5.485-5.862m0 2c1.916 0 3.484 2.47 3.484 3.862l-.416 13.407 24.443 16.537V153l-24.818-10.48-.43 13.818 2.9 2.747V162l-5.374-2.28-5.375 2.28v-2.915l2.9-2.747-.43-13.817-24.82 10.48v-6.043l24.444-16.536-.416-13.406c0-1.392 1.57-3.862 3.486-3.862h.423" fill="#C5A067"/><path d="M26.35 51.848a1 1 0 0 1-1-1v-2.916a1 1 0 0 1 .313-.726l2.572-2.438-.37-11.91L4.39 42.77a.998.998 0 0 1-.942-.088A1 1 0 0 1 3 41.848v-6.043a1 1 0 0 1 .44-.828L27.427 18.75l-.4-12.857C27.026 3.943 29.038 1 31.512 1h.42c2.478 0 4.487 2.942 4.487 4.862l-.4 12.887 23.988 16.227a1 1 0 0 1 .44.828v6.043a1.003 1.003 0 0 1-1 1 .994.994 0 0 1-.39-.078l-23.477-9.913-.367 11.91 2.572 2.44a1 1 0 0 1 .314.725l-.002 2.916a1 1 0 0 1-1.39.92l-4.984-2.113-4.983 2.113a.99.99 0 0 1-.39.08" fill="#FEFEFE"/><path d="M31.935 0h-.423c-3.182 0-5.485 3.5-5.485 5.862v.062l.383 12.306L2.88 34.15c-.55.37-.88.99-.88 1.655v6.044a2.003 2.003 0 0 0 2 2c.263 0 .528-.053.778-.16l22.133-9.344.312 10.006-2.248 2.13c-.4.376-.625.9-.625 1.45v2.916a2 2 0 0 0 2.78 1.842l4.593-1.95 4.594 1.95a2 2 0 0 0 2.78-1.842v-2.915c0-.55-.225-1.075-.624-1.452l-2.247-2.128.31-10.006L58.67 43.69a1.993 1.993 0 0 0 1.883-.174c.558-.37.894-.997.894-1.667v-6.045c0-.664-.33-1.284-.88-1.656l-23.53-15.92.382-12.306v-.062C37.42 3.502 35.117 0 31.935 0m0 2c1.917 0 3.485 2.47 3.485 3.862l-.416 13.407 24.443 16.535v6.044l-24.82-10.48-.428 13.816 2.898 2.747v2.915l-5.375-2.28-5.374 2.28v-2.915l2.9-2.747-.43-13.817L4 41.85v-6.045L28.443 19.27 28.027 5.86C28.027 4.47 29.595 2 31.512 2h.423" fill="#C5A067"/><path d="M137.462 51.848a.988.988 0 0 1-.39-.08l-4.984-2.113-4.984 2.113a.99.99 0 0 1-.943-.086 1 1 0 0 1-.447-.834v-2.916c0-.274.113-.537.312-.726l2.574-2.438-.37-11.91-23.477 9.912a1 1 0 0 1-1.39-.922v-6.043a1 1 0 0 1 .44-.828l23.988-16.228-.4-12.857c0-1.95 2.01-4.893 4.486-4.893h.423c2.474 0 4.484 2.942 4.484 4.862l-.4 12.887 23.988 16.227a1 1 0 0 1 .44.828v6.043a1 1 0 0 1-1.39.922l-23.476-9.913-.37 11.91 2.573 2.44a1 1 0 0 1 .312.725v2.916a1 1 0 0 1-1 1" fill="#FEFEFE"/><path d="M132.3 0h-.424c-3.182 0-5.485 3.5-5.485 5.862 0 .02 0 .04.002.062l.382 12.306-23.53 15.92c-.55.37-.88.99-.88 1.655v6.044a2.003 2.003 0 0 0 2 2c.263 0 .528-.053.778-.16l22.133-9.344.31 10.006-2.247 2.13c-.4.376-.625.9-.625 1.45v2.916a2 2 0 0 0 2.78 1.842l4.595-1.95 4.593 1.95a2 2 0 0 0 2.782-1.842v-2.915c0-.55-.226-1.075-.625-1.452l-2.247-2.128.31-10.006 22.133 9.345a1.993 1.993 0 0 0 1.884-.174c.558-.37.894-.997.894-1.667v-6.045c0-.664-.328-1.284-.878-1.656l-23.53-15.92.38-12.306c.002-.02.002-.042.002-.062 0-2.36-2.303-5.862-5.485-5.862m0 2c1.916 0 3.484 2.47 3.484 3.862l-.416 13.407 24.443 16.535v6.044l-24.818-10.48-.43 13.816 2.9 2.747v2.915l-5.374-2.28-5.375 2.28v-2.915l2.9-2.747-.43-13.817-24.82 10.48v-6.045l24.444-16.536-.416-13.408c0-1.392 1.57-3.862 3.486-3.862h.423" fill="#C5A067"/></g></svg>