<svg width="149" height="161" viewBox="0 0 149 161" xmlns="http://www.w3.org/2000/svg"><title>Page 1</title><g fill="none" fill-rule="evenodd"><path d="M69.32 2.932c43.373 0 78.534 35.16 78.534 78.533 0 43.374-35.16 78.535-78.534 78.535-24.397 0-46.196-11.125-60.6-28.58" stroke="#C5A067" stroke-width="2" stroke-linecap="round" stroke-linejoin="round"/><path d="M73.114 64.567c2.03-2.967 4.997-4.633 9.006-4.633 5.413 0 9.682 3.436 9.682 9.266 0 1.746-.663 3.394-1.775 4.796a10.09 10.09 0 0 1-1.163 1.23m-3.85 3.373c4.59 1.438 8.036 4.97 8.036 9.08 0 5.83-3.85 10.567-10.983 10.567-4.945 0-8.693-2.343-10.567-6.3M61.667 62.394c3.9 3.594 5.027 10.53 5.027 16.696 0 8.048-1.873 17.204-9.157 18.885m-9.015-2.038c-4.02-3.533-5.15-10.53-5.15-16.847 0-8.02 1.863-17.34 9.332-18.92" stroke="#C5A067" stroke-width="2" stroke-linecap="round" stroke-linejoin="round"/><path d="M37.61 70.952a1.397 1.397 0 1 1-2.794 0 1.397 1.397 0 0 1 2.794 0M37.61 88.786a1.397 1.397 0 1 1-2.794 0 1.397 1.397 0 0 1 2.794 0" fill="#C5A067"/><path d="M8.72 138.327a6.86 6.86 0 0 1-4.884-2.023 6.915 6.915 0 0 1 0-9.767 6.86 6.86 0 0 1 4.883-2.022c1.844 0 3.578.718 4.883 2.022a6.915 6.915 0 0 1 0 9.767 6.864 6.864 0 0 1-4.884 2.023" fill="#FEFEFE"/><path d="M8.72 123.363a8.005 8.005 0 0 0-5.698 2.36 8.005 8.005 0 0 0-2.36 5.698c0 2.153.838 4.177 2.36 5.7a8.005 8.005 0 0 0 5.697 2.358 8.005 8.005 0 0 0 5.697-2.36 8.005 8.005 0 0 0 2.36-5.697 8.005 8.005 0 0 0-2.36-5.697 8.005 8.005 0 0 0-5.698-2.36m0 2.302a5.74 5.74 0 0 1 4.07 1.686 5.758 5.758 0 0 1 0 8.14 5.74 5.74 0 0 1-4.07 1.686 5.74 5.74 0 0 1-4.07-1.685 5.758 5.758 0 0 1 0-8.14 5.74 5.74 0 0 1 4.07-1.685M73.05 2.932a2.808 2.808 0 1 1-5.616 0 2.808 2.808 0 0 1 5.615 0" fill="#C5A067"/></g></svg>