<?xml version="1.0" encoding="UTF-8" standalone="no"?>
<svg width="160px" height="121px" viewBox="0 0 160 121" version="1.1" xmlns="http://www.w3.org/2000/svg" xmlns:xlink="http://www.w3.org/1999/xlink" xmlns:sketch="http://www.bohemiancoding.com/sketch/ns">
    <!-- Generator: Sketch 3.4.1 (15681) - http://www.bohemiancoding.com/sketch -->
    <title>icon1</title>
    <desc>Created with Sketch.</desc>
    <defs>
        <path id="path-1" d="M0,0.308292683 L160,0.308292683 L160,120.97561 L0,120.97561 L0,0.308292683 Z"></path>
    </defs>
    <g id="Page-1" stroke="none" stroke-width="1" fill="none" fill-rule="evenodd" sketch:type="MSPage">
        <g id="Home-nighttime" sketch:type="MSArtboardGroup" transform="translate(-250.000000, -3997.000000)">
            <g id="benefits-section-3-copy-2" sketch:type="MSLayerGroup" transform="translate(0.000000, 3355.000000)">
                <g id="benefit-2" transform="translate(250.000000, 631.000000)">
                    <g id="icon1" transform="translate(0.000000, 11.000000)">
                        <path d="M3.58546341,26.7948293 C3.04692683,26.7948293 2.60985366,26.3577561 2.60985366,25.8192195 L2.60985366,2.25921951 C2.60985366,1.72068293 3.04692683,1.28360976 3.58546341,1.28360976 L158.048878,1.28360976 C158.587415,1.28360976 159.024488,1.72068293 159.024488,2.25921951 L159.024488,25.8192195 C159.024488,26.3577561 158.587415,26.7948293 158.048878,26.7948293 L3.58546341,26.7948293 Z" id="Fill-1" fill="#FEFEFE" sketch:type="MSShapeGroup"></path>
                        <g id="Group-5">
                            <mask id="mask-2" sketch:name="Clip 4" fill="white">
                                <use xlink:href="#path-1"></use>
                            </mask>
                            <g id="Clip-4"></g>
                            <path d="M158.04878,0.308 L3.58536585,0.308 C2.50829268,0.308 1.63414634,1.18117073 1.63414634,2.25921951 L1.63414634,25.8192195 C1.63414634,26.8962927 2.50829268,27.770439 3.58536585,27.770439 L158.04878,27.770439 C159.126829,27.770439 160,26.8962927 160,25.8192195 L160,2.25921951 C160,1.18117073 159.126829,0.308 158.04878,0.308 L158.04878,0.308 Z M158.04878,25.8192195 L3.58536585,25.8192195 L3.58536585,2.25921951 L158.04878,2.25921951 L158.04878,25.8192195 Z" id="Fill-3" fill="#C5A067" sketch:type="MSShapeGroup" mask="url(#mask-2)"></path>
                        </g>
                        <path d="M1.95102439,73.396878 C1.4124878,73.396878 0.975414634,72.9607805 0.975414634,72.4212683 L0.975414634,48.8622439 C0.975414634,48.3227317 1.4124878,47.8866341 1.95102439,47.8866341 L158.048585,47.8866341 C158.587122,47.8866341 159.024195,48.3227317 159.024195,48.8622439 L159.024195,72.4212683 C159.024195,72.9607805 158.587122,73.396878 158.048585,73.396878 L1.95102439,73.396878 Z" id="Fill-6" fill="#C5A067" sketch:type="MSShapeGroup"></path>
                        <path d="M158.04878,46.9107317 L1.95121951,46.9107317 C0.873170732,46.9107317 0,47.7839024 0,48.8619512 L0,72.4219512 C0,73.4990244 0.873170732,74.3731707 1.95121951,74.3731707 L158.04878,74.3731707 C159.126829,74.3731707 160,73.4990244 160,72.4219512 L160,48.8619512 C160,47.7839024 159.126829,46.9107317 158.04878,46.9107317 L158.04878,46.9107317 Z M158.04878,72.4219512 L1.95121951,72.4219512 L1.95121951,48.8619512 L158.04878,48.8619512 L158.04878,72.4219512 Z" id="Fill-8" fill="#C5A067" sketch:type="MSShapeGroup"></path>
                        <path d="M3.58546341,120.000293 C3.04692683,120.000293 2.60985366,119.564195 2.60985366,119.024683 L2.60985366,95.4646829 C2.60985366,94.9251707 3.04692683,94.4890732 3.58546341,94.4890732 L158.048878,94.4890732 C158.587415,94.4890732 159.024488,94.9251707 159.024488,95.4646829 L159.024488,119.024683 C159.024488,119.564195 158.587415,120.000293 158.048878,120.000293 L3.58546341,120.000293 Z" id="Fill-10" fill="#FEFEFE" sketch:type="MSShapeGroup"></path>
                        <path d="M158.04878,93.5134634 L3.58536585,93.5134634 C2.50829268,93.5134634 1.63414634,94.3866341 1.63414634,95.4646829 L1.63414634,119.024683 C1.63414634,120.101756 2.50829268,120.975902 3.58536585,120.975902 L158.04878,120.975902 C159.126829,120.975902 160,120.101756 160,119.024683 L160,95.4646829 C160,94.3866341 159.126829,93.5134634 158.04878,93.5134634 L158.04878,93.5134634 Z M158.04878,119.024683 L3.58536585,119.024683 L3.58536585,95.4646829 L158.04878,95.4646829 L158.04878,119.024683 Z" id="Fill-12" fill="#C5A067" sketch:type="MSShapeGroup"></path>
                        <path d="M21.2652683,60.4553171 C21.2652683,63.3626341 18.9081951,65.7197073 16.000878,65.7197073 C13.0925854,65.7197073 10.7364878,63.3626341 10.7364878,60.4553171 C10.7364878,57.548 13.0925854,55.1909268 16.000878,55.1909268 C18.9081951,55.1909268 21.2652683,57.548 21.2652683,60.4553171" id="Fill-15" fill="#FEFEFE" sketch:type="MSShapeGroup"></path>
                        <path d="M22.137561,14.039122 C22.137561,16.946439 19.7804878,19.3035122 16.8731707,19.3035122 C13.964878,19.3035122 11.6078049,16.946439 11.6078049,14.039122 C11.6078049,11.1318049 13.964878,8.77473171 16.8731707,8.77473171 C19.7804878,8.77473171 22.137561,11.1318049 22.137561,14.039122" id="Fill-17" fill="#C5A067" sketch:type="MSShapeGroup"></path>
                        <path d="M22.137561,107.244585 C22.137561,110.151902 19.7804878,112.508976 16.8731707,112.508976 C13.964878,112.508976 11.6078049,110.151902 11.6078049,107.244585 C11.6078049,104.337268 13.964878,101.980195 16.8731707,101.980195 C19.7804878,101.980195 22.137561,104.337268 22.137561,107.244585" id="Fill-19" fill="#C5A067" sketch:type="MSShapeGroup"></path>
                    </g>
                </g>
            </g>
        </g>
    </g>
</svg>