<svg id="UI_Elements_1" xmlns="http://www.w3.org/2000/svg" viewBox="12 -168 636 1128"><style>.st0{opacity:.5}.st1{fill:#f9f9f8}.st2{opacity:.5;fill:none;stroke:#f9f9f8;stroke-miterlimit:10;enable-background:new}.st3{fill:#FFF}</style><path class="st0 st1" d="M328-30.4c-4.1-5.3-10.6-8.5-17.3-8.5h-21v76h15.2v-60.7h6.1c2 0 3.9.9 5 2.5l45 58.2h19.3L328-30.4z"/><path class="st2" d="M57.8 716.9h544.5v114H57.8z"/><g class="st0"><path class="st3" d="M155.4 756.7H168c4.9 0 9.9 2.2 9.9 8.1 0 3.7-2.3 6.1-5.6 7.1v.1c4.1.5 7 3.3 7 7.6 0 7-6.1 9.4-12.3 9.4h-11.6v-32.3zm5.7 13.2h5.1c3.8 0 5.9-1.6 5.9-4.4 0-2.9-2.1-4-6.4-4h-4.6v8.4zm0 14.4h5.2c3 0 7.2-.6 7.2-4.8 0-3.4-2.3-4.6-7-4.6h-5.4v9.4zM205.2 755.9c10.1 0 17.5 6.5 17.5 16.9 0 10.1-7.4 17.1-17.5 17.1-10 0-17.3-7-17.3-17.1 0-10.3 7.3-16.9 17.3-16.9zm.2 28.9c6.6 0 11.2-5 11.2-11.9 0-6.7-4.4-11.9-11.2-11.9-6.7 0-11.1 5.2-11.1 11.9-.2 6.9 4.5 11.9 11.1 11.9zM248.6 755.9c10.1 0 17.5 6.5 17.5 16.9 0 10.1-7.4 17.1-17.5 17.1-10 0-17.3-7-17.3-17.1.1-10.3 7.5-16.9 17.3-16.9zm.2 28.9c6.6 0 11.2-5 11.2-11.9 0-6.7-4.4-11.9-11.2-11.9-6.7 0-11.1 5.2-11.1 11.9-.1 6.9 4.4 11.9 11.1 11.9zM276.4 756.7h5.8v14h.1l13.5-14h7.8l-15.1 15 16.2 17.4h-8.1l-14.2-16.2h-.4v16.2h-5.8v-32.4h.2zM327.9 756.7h20.9v5h-15.1v8.9H348v4.8h-14.3V789h-5.8v-32.3zM358.6 756.7h5.8V784h13.8v5.1h-19.5l-.1-32.4zM386.6 756.7h5.8v32.4h-5.8v-32.4zM432.5 787.4c-3.2 1.6-7.1 2.5-12.2 2.5-10.4 0-17.7-7-17.7-17.1 0-10.4 7.6-16.9 17.6-16.9 5.1 0 9.7 1.6 12.3 4.1l-4 4.3c-1.6-1.8-4.8-3.3-8.3-3.3-6.8 0-11.3 5.2-11.3 11.9 0 6.9 4.4 11.9 11.5 11.9 2.4 0 4.6-.4 6.5-1.1v-8.2H420v-4.8h12.4l.1 16.7zM444 756.7h5.8v13.1h15.1v-13.1h5.8v32.4h-5.8v-14.4h-15.1v14.4H444v-32.4zM489 761.8h-9.9v-5h25.6v5h-9.9v27.4H489v-27.4z"/></g></svg>