<svg id="UI_Elements_1" xmlns="http://www.w3.org/2000/svg" viewBox="-77 -258 636 1128"><style>.st0{opacity:.75}.st1{opacity:.5;enable-background:new}.st1,.st2{fill:#f9f9f8}</style><g class="st0"><path class="st1" d="M70.6 486.9l.1-24.5h1.4v26.4h-1.9l-17.9-24.5h-.1v24.5h-1.4v-26.4h1.9l17.9 24.5zM96.3 480.2c0 1.3-.2 2.5-.7 3.6-.4 1.1-1.1 2.1-1.9 2.9s-1.8 1.4-2.9 1.9-2.3.7-3.7.7c-1.3 0-2.5-.2-3.6-.7s-2.1-1.1-2.9-1.9-1.4-1.8-1.9-2.9c-.4-1.1-.7-2.3-.7-3.6s.2-2.5.7-3.6c.4-1.1 1.1-2.1 1.9-2.9s1.7-1.4 2.9-1.9c1.1-.4 2.3-.7 3.6-.7s2.6.2 3.7.7c1.1.4 2.1 1.1 2.9 1.9s1.4 1.8 1.9 2.9c.4 1.1.7 2.3.7 3.6zm-1.4 0c0-1.1-.2-2.1-.5-3.1-.4-1-.9-1.8-1.5-2.5-.7-.7-1.5-1.3-2.4-1.7s-2-.6-3.2-.6-2.3.2-3.2.6-1.7 1-2.4 1.7-1.2 1.6-1.5 2.5c-.3 1-.5 2-.5 3.1s.2 2.1.5 3.1.9 1.8 1.5 2.5c.7.7 1.5 1.3 2.4 1.7s2 .6 3.2.6 2.3-.2 3.2-.6c.9-.4 1.8-1 2.4-1.7.7-.7 1.2-1.6 1.5-2.5.3-1 .5-2 .5-3.1zM103.4 471.7c0 .2 0 .5.1.9v3.2h.1c.2-.7.6-1.3 1-1.9s1-1 1.5-1.4c.6-.4 1.2-.7 1.9-.9s1.4-.3 2.1-.3c1.2 0 2.2.2 3 .6s1.5.9 2 1.6.9 1.4 1.1 2.3.4 1.8.4 2.7V489h-1.4v-10.1c0-.8-.1-1.5-.2-2.3-.2-.8-.4-1.5-.8-2.1s-.9-1.1-1.6-1.5-1.5-.6-2.5-.6c-.9 0-1.7.2-2.4.5-.8.3-1.4.9-2 1.5-.6.7-1 1.5-1.4 2.5-.3 1-.5 2.1-.5 3.4v8.7h-1.4v-13-.9-1.2c0-.4 0-.8-.1-1.1 0-.4-.1-.7-.1-.9h1.2v-.2zM132.4 474.5c-1-1.5-2.5-2.3-4.5-2.3-.4 0-.9.1-1.4.2s-.9.3-1.4.6c-.4.3-.7.6-1 1.1-.3.4-.4 1-.4 1.6 0 1 .4 1.8 1.1 2.3s1.9 1 3.5 1.4c.8.2 1.5.4 2.2.7.7.2 1.3.6 1.8.9.5.4.9.8 1.2 1.3s.4 1.2.4 1.9c0 .8-.2 1.6-.5 2.2s-.8 1.2-1.3 1.6-1.2.7-1.9 1c-.7.2-1.4.3-2.2.3-1.3 0-2.5-.2-3.6-.7s-2-1.2-2.7-2.3l1.1-.8c.6.8 1.3 1.5 2.2 1.9s1.9.7 3 .7c.5 0 1.1-.1 1.6-.2s1-.4 1.5-.7.8-.7 1-1.2c.3-.5.4-1 .4-1.7s-.2-1.3-.5-1.7-.7-.8-1.2-1.1-1.1-.5-1.7-.7-1.3-.4-2-.5c-1.5-.4-2.6-.9-3.4-1.6s-1.2-1.7-1.2-3c0-.8.2-1.4.5-2s.7-1.1 1.3-1.5c.5-.4 1.1-.7 1.8-.9s1.3-.3 2-.3c1.2 0 2.3.2 3.2.7.9.4 1.7 1.1 2.2 2l-1.1.8zM146.4 472.7h-5v12c0 1.2.3 2 .8 2.5.6.5 1.3.7 2.1.7.7 0 1.4-.1 2-.4l.1 1.2c-.3.1-.7.2-1.1.3-.4.1-.8.1-1.2.1-1.2 0-2.2-.3-2.9-1s-1.1-1.7-1.1-3.1v-12.3h-3.7v-1.1h3.7v-5h1.4v5h5v1.1h-.1zM167.6 480.2c0 1.3-.2 2.5-.7 3.6-.4 1.1-1.1 2.1-1.9 2.9-.8.8-1.8 1.4-2.9 1.9-1.1.5-2.3.7-3.7.7-1.3 0-2.5-.2-3.6-.7s-2.1-1.1-2.9-1.9c-.8-.8-1.4-1.8-1.9-2.9-.4-1.1-.7-2.3-.7-3.6s.2-2.5.7-3.6c.4-1.1 1.1-2.1 1.9-2.9.8-.8 1.7-1.4 2.9-1.9 1.1-.4 2.3-.7 3.6-.7s2.6.2 3.7.7c1.1.4 2.1 1.1 2.9 1.9.8.8 1.4 1.8 1.9 2.9s.7 2.3.7 3.6zm-1.4 0c0-1.1-.2-2.1-.5-3.1-.4-1-.9-1.8-1.5-2.5-.7-.7-1.5-1.3-2.4-1.7s-2-.6-3.2-.6-2.3.2-3.2.6-1.7 1-2.4 1.7-1.2 1.6-1.5 2.5c-.3 1-.5 2-.5 3.1s.2 2.1.5 3.1.9 1.8 1.5 2.5c.7.7 1.5 1.3 2.4 1.7s2 .6 3.2.6 2.3-.2 3.2-.6 1.8-1 2.4-1.7c.7-.7 1.2-1.6 1.5-2.5.3-1 .5-2 .5-3.1zM174.9 497.8h-1.4v-26.1h1.4v4.1h.1c.7-1.5 1.7-2.7 3.1-3.5 1.3-.8 2.7-1.2 4.3-1.2 1.3 0 2.5.2 3.6.7s2 1.1 2.8 1.9 1.3 1.8 1.8 2.9c.4 1.1.6 2.3.6 3.6s-.2 2.5-.6 3.6-1 2.1-1.8 2.9-1.7 1.5-2.8 1.9c-1.1.5-2.2.7-3.5.7-.7 0-1.5-.1-2.2-.3s-1.4-.5-2.1-.9c-.6-.4-1.2-.9-1.8-1.4-.5-.6-1-1.2-1.3-2h-.1l-.1 13.1zm14.8-17.6c0-1.1-.2-2.1-.5-3.1s-.8-1.8-1.5-2.5c-.6-.7-1.4-1.3-2.3-1.7s-1.9-.7-3.1-.7c-1.1 0-2.1.2-3 .6s-1.7 1-2.4 1.7-1.2 1.6-1.6 2.5-.6 2-.6 3.1.2 2.1.6 3.1c.4 1 .9 1.8 1.6 2.5s1.5 1.3 2.4 1.7 1.9.6 3 .6 2.2-.2 3.1-.6 1.7-1 2.3-1.7 1.1-1.6 1.5-2.5c.3-.8.5-1.9.5-3z"/><path class="st2" d="M242.1 480.9h4.2v1.2h-4.2v6.7h-1.4v-6.7h-12.2v-1.5l11.7-18.2h2l-.1 18.5zm-1.4-16.9h-.1l-10.8 16.9h10.9V464z"/><path class="st1" d="M263.2 461h.8v7.1h9.8V461h.8v15.4h-.8v-7.6H264v7.6h-.8V461zM280.9 476.4h-.8V461h4.3c.6 0 1.2.1 1.8.2s1.1.3 1.6.6.8.7 1.1 1.2c.3.5.4 1.1.4 1.9 0 .7-.1 1.3-.4 1.7-.3.5-.6.9-1 1.2-.4.3-.9.5-1.4.7s-1 .2-1.6.3l4.6 7.6h-1l-4.5-7.6h-3.3v7.6h.2zm0-8.3h3.4c1.4 0 2.4-.3 3.1-.8s1.1-1.3 1.1-2.4c0-.6-.1-1.1-.4-1.5-.2-.4-.6-.7-1-1-.4-.3-.9-.4-1.4-.5s-1.1-.2-1.7-.2h-3.3v6.4h.2zM301.9 462.9c-.4-.5-.9-.9-1.5-1.2-.6-.3-1.3-.4-2-.4-.5 0-1 .1-1.4.2-.4.1-.9.3-1.3.6s-.7.6-.9 1c-.2.4-.3.9-.3 1.5 0 .8.2 1.4.6 1.9.4.5.9.8 1.5 1.1.6.3 1.3.6 2 .8s1.4.5 2 .8c.6.3 1.1.7 1.5 1.2.4.5.6 1.2.6 2.1 0 .7-.1 1.3-.4 1.8s-.6 1-1 1.3c-.4.3-1 .6-1.5.8-.6.2-1.2.3-1.8.3-1 0-1.8-.2-2.6-.5s-1.5-.8-2-1.5l.5-.5c.6.6 1.2 1 1.8 1.3.7.3 1.4.5 2.2.5.5 0 1-.1 1.5-.2.5-.2.9-.4 1.3-.7.4-.3.7-.6.9-1.1.2-.4.3-.9.3-1.5s-.1-1.1-.4-1.5c-.2-.4-.6-.7-.9-1-.4-.3-.8-.5-1.3-.7l-1.5-.6-1.5-.6c-.5-.2-.9-.5-1.3-.8-.4-.3-.7-.7-.9-1.2-.2-.5-.4-1-.4-1.7s.1-1.3.4-1.8.6-.9 1.1-1.3c.4-.3 1-.6 1.5-.8s1.2-.3 1.8-.3c.9 0 1.7.2 2.4.5s1.3.7 1.7 1.3l-.7.9z"/><path class="st2" d="M328.7 488.8h-1.4v-24.7l-4.9 4.2-.9-1 5.9-4.9h1.3v26.4zM354.8 480.9h4.2v1.2h-4.2v6.7h-1.4v-6.7h-12.3v-1.5l11.7-18.2h2v18.5zm-1.4-16.9h-.1l-10.8 16.9h10.9V464z"/><path class="st1" d="M375.9 461h1.3l6.2 14.1 6.2-14.1h1.3v15.4h-.8V462h-.1l-6.4 14.4h-.5l-6.4-14.4v14.4h-.8V461zM397.2 476.4h-.8V461h.8v15.4zM414.4 475.3V461h.8v15.4H414l-10.4-14.3v14.3h-.8V461h1.1l10.5 14.3zM428.5 462.9c-.4-.5-.9-.9-1.5-1.2-.6-.3-1.3-.4-2-.4-.5 0-1 .1-1.4.2-.4.1-.9.3-1.3.6s-.7.6-.9 1c-.2.4-.3.9-.3 1.5 0 .8.2 1.4.6 1.9.4.5.9.8 1.5 1.1.6.3 1.3.6 2 .8s1.4.5 2 .8c.6.3 1.1.7 1.5 1.2.4.5.6 1.2.6 2.1 0 .7-.1 1.3-.4 1.8s-.6 1-1 1.3c-.4.3-1 .6-1.5.8-.6.2-1.2.3-1.8.3-1 0-1.8-.2-2.6-.5s-1.5-.8-2-1.5l.5-.5c.6.6 1.2 1 1.8 1.3.7.3 1.4.5 2.2.5.5 0 1-.1 1.5-.2.5-.2.9-.4 1.3-.7.4-.3.7-.6.9-1.1.2-.4.3-.9.3-1.5s-.1-1.1-.4-1.5c-.2-.4-.6-.7-.9-1-.4-.3-.8-.5-1.3-.7l-1.5-.6-1.5-.6c-.5-.2-.9-.5-1.3-.8-.4-.3-.7-.7-.9-1.2-.2-.5-.4-1-.4-1.7s.1-1.3.4-1.8.6-.9 1.1-1.3c.4-.3 1-.6 1.5-.8s1.2-.3 1.8-.3c.9 0 1.7.2 2.4.5s1.3.7 1.7 1.3l-.7.9z"/></g><path class="st2" d="M10.7 339h.2l22.9-60.1h3.6l-24.4 64H8.8l-24.2-64h3.7L10.7 339zM100.1 338.2h.2v-59.3h3.3v64h-4.5l-43.3-59.5h-.2v59.5h-3.3v-64h4.5l43.3 59.3zM144.3 342.9H141V315l-22.6-36.2h4.2l20.2 33.1 20.2-33.1h3.9L144.4 315l-.1 27.9z"/><g><path class="st2" d="M357.5 342.9h-3.3V282h-21.8v-3h46.8v3h-21.7v60.9zM397.8 339.9h36v3h-39.3V279h38v3h-34.7v26.2h32.6v3h-32.6v28.7zM452.4 278.9h18c2.4 0 4.8.2 7.2.7s4.6 1.3 6.5 2.5c1.9 1.2 3.4 2.8 4.6 4.7 1.2 2 1.8 4.5 1.8 7.5 0 2.1-.3 4-1 5.6s-1.6 3-2.8 4.2c-1.1 1.2-2.5 2.2-4 3-1.5.8-3.1 1.4-4.7 1.7v.2c1.7.2 3.5.6 5.4 1.4 1.9.8 3.5 1.8 5 3.1 1.5 1.4 2.7 3 3.7 5s1.4 4.3 1.4 7.1c0 3.2-.6 5.9-1.8 8.1s-2.9 4-4.9 5.3c-2 1.4-4.3 2.3-6.9 2.9-2.6.6-5.2.9-7.9.9h-19.4v-63.9h-.2zm3.4 28.8h14.7c2 0 4-.2 5.9-.7 2-.5 3.7-1.2 5.4-2.3 1.7-1.1 2.9-2.4 3.9-4.1s1.5-3.7 1.5-6c0-2.4-.5-4.4-1.5-6.1s-2.3-3-3.9-4-3.5-1.7-5.6-2.1c-2.1-.4-4.3-.6-6.6-.6h-13.8v25.9zm0 32.2H471c2.7 0 5.1-.3 7.5-.8 2.3-.5 4.3-1.4 6-2.5s3-2.6 4-4.4 1.4-3.9 1.4-6.5c0-2.7-.5-4.9-1.5-6.8s-2.4-3.5-4.1-4.7-3.6-2.1-5.7-2.7c-2.1-.6-4.3-.9-6.5-.9h-16.4v29.3h.1z"/></g><path class="st1" d="M271 301.2l-13.2.4-16.3-24.1h-6l10.3 24.5-13.6.4-2.7-2.9h-2.9l2.2 5.3-2.2 5.3h2.9l2.7-2.9 13.6.4-10.3 24.6h6l16.3-24.1 13.2.4c1.4 0 3.8-1.5 3.8-3.4v-.4c0-1.9-2.4-3.5-3.8-3.5z"/><g><g class="st0"><path class="st2" d="M-15.3 389.9h-1.2v-21l-4.2 3.6-.7-.9 5-4.1h1.1v22.4zM2.8 367.1c1.4 0 2.6.4 3.5 1.1s1.6 1.6 2.2 2.8c.5 1.1.9 2.4 1.1 3.8.2 1.4.3 2.7.3 4.1s-.1 2.7-.3 4.1c-.2 1.4-.6 2.6-1.1 3.8-.5 1.1-1.3 2-2.2 2.7-.9.7-2.1 1.1-3.5 1.1s-2.6-.4-3.5-1.1-1.6-1.6-2.2-2.7c-.5-1.1-.9-2.4-1.1-3.8-.2-1.4-.3-2.7-.3-4.1 0-1.3.1-2.7.3-4.1s.6-2.6 1.1-3.8c.5-1.1 1.2-2 2.2-2.8s2.1-1.1 3.5-1.1zm0 1c-.9 0-1.6.2-2.2.5s-1.2.8-1.6 1.4-.8 1.2-1.1 2-.5 1.5-.6 2.3-.2 1.6-.3 2.3c-.1.8-.1 1.5-.1 2.1s0 1.3.1 2.1.2 1.5.3 2.3c.1.8.4 1.5.6 2.3s.6 1.4 1.1 2c.4.6 1 1 1.6 1.4.6.3 1.4.5 2.2.5.9 0 1.6-.2 2.2-.5s1.2-.8 1.6-1.4.8-1.2 1.1-2c.3-.7.5-1.5.6-2.3.1-.8.2-1.6.3-2.3.1-.8.1-1.5.1-2.1s0-1.3-.1-2.1-.2-1.5-.3-2.3-.4-1.5-.6-2.3c-.3-.7-.6-1.4-1.1-2-.4-.6-1-1-1.6-1.4-.6-.3-1.3-.5-2.2-.5zM18.9 376.3c0 .3-.1.5-.3.8s-.4.3-.7.3c-.3 0-.5-.1-.7-.3s-.3-.5-.3-.8.1-.5.3-.8c.2-.2.4-.3.7-.3.3 0 .5.1.7.3.2.3.3.5.3.8zm0 12.7c0 .3-.1.6-.3.8-.2.2-.4.3-.7.3-.3 0-.5-.1-.7-.3s-.3-.5-.3-.8.1-.5.3-.8c.2-.2.4-.3.7-.3.3 0 .5.1.7.3s.3.5.3.8zM33 367.1c1.4 0 2.6.4 3.5 1.1s1.6 1.6 2.2 2.8c.5 1.1.9 2.4 1.1 3.8.2 1.4.3 2.7.3 4.1s-.1 2.7-.3 4.1-.6 2.6-1.1 3.8c-.5 1.1-1.3 2-2.2 2.7s-2.1 1.1-3.5 1.1-2.6-.4-3.5-1.1-1.6-1.6-2.2-2.7c-.5-1.1-.9-2.4-1.1-3.8s-.3-2.7-.3-4.1c0-1.3.1-2.7.3-4.1.2-1.4.6-2.6 1.1-3.8.5-1.1 1.2-2 2.2-2.8s2-1.1 3.5-1.1zm0 1c-.9 0-1.6.2-2.2.5s-1.2.8-1.6 1.4-.8 1.2-1.1 2c-.3.8-.5 1.5-.6 2.3s-.2 1.6-.3 2.3c-.1.8-.1 1.5-.1 2.1s0 1.3.1 2.1.2 1.5.3 2.3c.1.8.4 1.5.6 2.3s.6 1.4 1.1 2c.4.6 1 1 1.6 1.4.6.3 1.4.5 2.2.5.9 0 1.6-.2 2.2-.5s1.2-.8 1.6-1.4c.4-.6.8-1.2 1.1-2 .3-.7.5-1.5.6-2.3s.2-1.6.3-2.3c.1-.8.1-1.5.1-2.1s0-1.3-.1-2.1-.2-1.5-.3-2.3-.4-1.5-.6-2.3c-.3-.7-.6-1.4-1.1-2-.4-.6-1-1-1.6-1.4-.6-.3-1.4-.5-2.2-.5zM52.5 367.1c1.4 0 2.6.4 3.5 1.1s1.6 1.6 2.2 2.8c.5 1.1.9 2.4 1.1 3.8.2 1.4.3 2.7.3 4.1s-.1 2.7-.3 4.1-.6 2.6-1.1 3.8c-.5 1.1-1.3 2-2.2 2.7s-2.1 1.1-3.5 1.1-2.6-.4-3.5-1.1-1.6-1.6-2.2-2.7c-.5-1.1-.9-2.4-1.1-3.8-.2-1.4-.3-2.7-.3-4.1 0-1.3.1-2.7.3-4.1s.6-2.6 1.1-3.8c.5-1.1 1.2-2 2.2-2.8s2-1.1 3.5-1.1zm0 1c-.9 0-1.6.2-2.2.5-.6.3-1.2.8-1.6 1.4-.4.6-.8 1.2-1.1 2s-.5 1.5-.6 2.3-.2 1.6-.3 2.3c-.1.8-.1 1.5-.1 2.1s0 1.3.1 2.1.2 1.5.3 2.3.4 1.5.6 2.3.6 1.4 1.1 2c.4.6 1 1 1.6 1.4.6.3 1.4.5 2.2.5.9 0 1.6-.2 2.2-.5s1.2-.8 1.6-1.4c.4-.6.8-1.2 1.1-2 .3-.7.5-1.5.6-2.3s.2-1.6.3-2.3c.1-.8.1-1.5.1-2.1s0-1.3-.1-2.1-.2-1.5-.3-2.3-.4-1.5-.6-2.3c-.3-.7-.6-1.4-1.1-2-.4-.6-1-1-1.6-1.4-.6-.3-1.4-.5-2.2-.5zM70 390.4c-.6 0-1.2-.1-1.8-.2-.6-.2-1.1-.4-1.6-.8s-.9-.8-1.2-1.3c-.3-.5-.4-1.2-.4-2 0-1.1.3-1.9.8-2.5s1.2-1.1 2-1.5 1.7-.6 2.7-.7 1.9-.2 2.8-.2h2.1v-.9c0-1.5-.4-2.6-1.2-3.3s-1.9-1.1-3.3-1.1c-.9 0-1.7.2-2.4.5s-1.4.7-2 1.3l-.6-.8c.7-.6 1.4-1 2.3-1.4.9-.3 1.8-.5 2.8-.5 1.6 0 3 .4 4 1.3s1.5 2.2 1.5 4v6.4c0 .5 0 1.1.1 1.8s.1 1.1.2 1.5h-1.1c-.1-.4-.1-.9-.2-1.6 0-.6-.1-1.2-.1-1.6h-.1c-.5 1.2-1.2 2.1-2.2 2.7-.9.6-2 .9-3.1.9zm.2-1c1 0 1.8-.2 2.5-.6s1.2-.9 1.6-1.5.7-1.3.9-2 .3-1.5.3-2.3v-.8h-1.8c-.8 0-1.7 0-2.6.1s-1.7.3-2.4.5-1.3.7-1.8 1.2-.7 1.2-.7 2c0 .6.1 1.2.4 1.6s.6.8.9 1 .8.5 1.3.6c.5.1.9.2 1.4.2zM84.2 378.9v-.8-1-1c0-.3 0-.6-.1-.8h1.1v3.3h.1c.4-1.2 1.1-2.1 2.1-2.8s2-1 3.1-1c1.3 0 2.4.4 3.2 1.1s1.4 1.7 1.7 3c.4-1.3 1.1-2.3 2.1-3s2.1-1 3.4-1c1 0 1.8.2 2.5.5s1.2.8 1.6 1.4.7 1.3.9 2c.2.8.3 1.6.3 2.4v8.7H105v-8.4c0-.7-.1-1.4-.2-2.1s-.4-1.3-.7-1.8-.8-1-1.3-1.3-1.2-.5-2-.5-1.5.2-2.1.5-1.2.8-1.6 1.4-.8 1.3-1 2.1-.4 1.7-.4 2.7v7.5h-1.2v-8.8c0-1.7-.3-3-1-4-.7-.9-1.7-1.4-3-1.4-.7 0-1.3.1-1.9.4s-1.2.7-1.6 1.3c-.5.6-.8 1.3-1.1 2.2s-.4 1.9-.4 3v7.1h-1.2v-10.9h-.1z"/><path class="st1" d="M123.4 367.5h6.2c.9 0 1.8.1 2.6.3.9.2 1.6.5 2.3 1 .7.4 1.2 1 1.6 1.8s.6 1.6.6 2.7c0 1-.2 1.8-.5 2.6-.4.7-.8 1.3-1.5 1.8s-1.3.9-2.2 1.1-1.7.4-2.7.4h-5.2V390h-1.2v-22.5zm1.2 10.6h5.2c.8 0 1.5-.1 2.2-.3.7-.2 1.3-.5 1.8-.9s.9-.9 1.2-1.5.5-1.3.5-2.2-.2-1.6-.5-2.2-.8-1.1-1.3-1.4c-.5-.4-1.2-.6-1.9-.8-.7-.2-1.4-.3-2.2-.3h-5.1l.1 9.6zM154.5 370.2c-.5-.7-1.3-1.3-2.1-1.7-.9-.4-1.8-.6-2.9-.6-.7 0-1.4.1-2.1.3-.7.2-1.3.5-1.9.9-.5.4-1 .9-1.3 1.5s-.5 1.3-.5 2.2c0 1.2.3 2.1.9 2.7.6.7 1.3 1.2 2.2 1.6s1.9.8 2.9 1.1 2 .7 2.9 1.2 1.6 1.1 2.2 1.8c.6.8.9 1.8.9 3.1 0 1-.2 1.9-.6 2.7s-.9 1.4-1.5 1.9-1.4.9-2.2 1.2-1.7.4-2.6.4c-1.4 0-2.7-.2-3.8-.7-1.2-.5-2.1-1.2-2.9-2.1l.8-.8c.8.8 1.7 1.5 2.7 1.9s2.1.7 3.2.7c.7 0 1.5-.1 2.2-.3s1.3-.5 1.9-1c.5-.4 1-.9 1.3-1.6.3-.6.5-1.3.5-2.1 0-.9-.2-1.6-.5-2.2s-.8-1.1-1.4-1.5c-.6-.4-1.2-.7-1.9-1s-1.5-.6-2.2-.8c-.8-.3-1.5-.5-2.2-.9-.7-.3-1.4-.7-1.9-1.1-.6-.5-1-1-1.4-1.7-.3-.7-.5-1.5-.5-2.5s.2-1.8.6-2.6c.4-.8.9-1.4 1.6-1.9.6-.5 1.4-.9 2.2-1.1.8-.3 1.7-.4 2.6-.4 1.3 0 2.4.2 3.4.7s1.8 1.1 2.5 1.9l-1.1.8zM168.8 389.9h-1.2v-21.3H160v-1h16.4v1h-7.6v21.3z"/></g><g class="st0"><path class="st2" d="M321.8 367.1c1.4 0 2.6.4 3.5 1.1.9.7 1.6 1.6 2.2 2.8.5 1.1.9 2.4 1.1 3.8s.3 2.7.3 4.1-.1 2.7-.3 4.1c-.2 1.4-.6 2.6-1.1 3.8-.5 1.1-1.3 2-2.2 2.7-.9.7-2.1 1.1-3.5 1.1s-2.6-.4-3.5-1.1c-.9-.7-1.6-1.6-2.2-2.7-.5-1.1-.9-2.4-1.1-3.8s-.3-2.7-.3-4.1c0-1.3.1-2.7.3-4.1s.6-2.6 1.1-3.8c.5-1.1 1.2-2 2.2-2.8s1.9-1.1 3.5-1.1zm0 1c-.9 0-1.6.2-2.2.5-.6.3-1.2.8-1.6 1.4-.4.6-.8 1.2-1.1 2-.3.8-.5 1.5-.6 2.3-.1.8-.2 1.6-.3 2.3-.1.8-.1 1.5-.1 2.1s0 1.3.1 2.1.2 1.5.3 2.3.4 1.5.6 2.3.6 1.4 1.1 2c.4.6 1 1 1.6 1.4.6.3 1.4.5 2.2.5.9 0 1.6-.2 2.2-.5.6-.3 1.2-.8 1.6-1.4.4-.6.8-1.2 1.1-2 .3-.7.5-1.5.6-2.3.1-.8.2-1.6.3-2.3.1-.8.1-1.5.1-2.1s0-1.3-.1-2.1-.2-1.5-.3-2.3c-.1-.8-.4-1.5-.6-2.3-.3-.7-.6-1.4-1.1-2-.4-.6-1-1-1.6-1.4-.6-.3-1.5-.5-2.2-.5zM346.7 368.6h-9.5l-.2 8.1c.5-.3 1.1-.4 1.8-.6.6-.1 1.2-.2 1.8-.2 1.1 0 2 .2 2.9.5.9.3 1.6.8 2.2 1.5.6.6 1.1 1.4 1.4 2.3s.5 1.8.5 2.8c0 1.1-.2 2.2-.6 3.1-.4.9-.9 1.7-1.5 2.3-.6.6-1.4 1.1-2.2 1.4-.8.3-1.7.5-2.7.5-1.5 0-2.8-.3-3.8-.9s-1.8-1.4-2.5-2.4l1-.6c.5.9 1.2 1.6 2.1 2.1.9.5 1.9.8 3.1.8.7 0 1.5-.1 2.2-.4s1.3-.7 1.9-1.2c.5-.5 1-1.2 1.3-1.9s.5-1.7.5-2.6-.1-1.7-.4-2.5c-.3-.7-.7-1.4-1.2-1.9s-1.2-1-2-1.3-1.6-.5-2.6-.5c-.8 0-1.5.1-2.2.3s-1.4.5-2.1.8l.2-10.6h10.6v1.1zM357.4 376.3c0 .3-.1.5-.3.8-.2.3-.4.3-.7.3-.3 0-.5-.1-.7-.3s-.3-.5-.3-.8.1-.5.3-.8c.2-.2.4-.3.7-.3.3 0 .5.1.7.3.1.3.3.5.3.8zm0 12.7c0 .3-.1.6-.3.8-.2.2-.4.3-.7.3-.3 0-.5-.1-.7-.3s-.3-.5-.3-.8.1-.5.3-.8c.2-.2.4-.3.7-.3.3 0 .5.1.7.3s.3.5.3.8zM372.8 389.9h-1.2v-21l-4.2 3.6-.7-.9 5-4.1h1.1v22.4zM394.9 383.2h3.6v1h-3.6v5.7h-1.2v-5.7h-10.4v-1.3l9.9-15.5h1.7v15.8zm-1.2-14.3l-9.2 14.3h9.2v-14.3zM405.7 397.5h-1.2v-22.2h1.2v3.5h.1c.6-1.3 1.5-2.3 2.6-3 1.1-.7 2.3-1 3.6-1 1.1 0 2.1.2 3 .6.9.4 1.7.9 2.3 1.6s1.1 1.5 1.5 2.5c.4.9.5 2 .5 3.1s-.2 2.1-.5 3c-.4.9-.9 1.8-1.5 2.4-.7.7-1.4 1.2-2.3 1.6-.9.4-1.9.6-3 .6-.6 0-1.3-.1-1.9-.3-.6-.2-1.2-.4-1.8-.7-.5-.3-1-.7-1.5-1.2s-.8-1-1.1-1.7h-.1l.1 11.2zm12.5-14.9c0-.9-.1-1.8-.4-2.6s-.7-1.5-1.3-2.2c-.5-.6-1.2-1.1-2-1.5s-1.6-.6-2.6-.6c-.9 0-1.7.2-2.5.5s-1.4.8-2 1.5c-.6.6-1 1.3-1.3 2.2-.3.8-.5 1.7-.5 2.6s.2 1.8.5 2.6.8 1.5 1.3 2.1c.6.6 1.2 1.1 2 1.5s1.6.5 2.5.5c1 0 1.8-.2 2.6-.5.8-.4 1.4-.8 2-1.5.5-.6 1-1.3 1.3-2.1s.4-1.5.4-2.5zM426 378.9v-.8-1-1c0-.3 0-.6-.1-.8h1.1v3.3h.1c.4-1.2 1.1-2.1 2.1-2.8s2-1 3.1-1c1.3 0 2.4.4 3.2 1.1.8.7 1.4 1.7 1.7 3 .4-1.3 1.1-2.3 2.1-3s2.1-1 3.4-1c1 0 1.8.2 2.5.5s1.2.8 1.6 1.4c.4.6.7 1.3.9 2 .2.8.3 1.6.3 2.4v8.7h-1.2v-8.4c0-.7-.1-1.4-.2-2.1-.1-.7-.4-1.3-.7-1.8-.3-.5-.8-1-1.3-1.3s-1.2-.5-2-.5-1.5.2-2.1.5c-.6.3-1.2.8-1.6 1.4-.4.6-.8 1.3-1 2.1s-.4 1.7-.4 2.7v7.5h-1.2v-8.8c0-1.7-.3-3-1-4-.7-.9-1.7-1.4-3-1.4-.7 0-1.3.1-1.9.4-.6.3-1.2.7-1.6 1.3-.5.6-.8 1.3-1.1 2.2-.3.9-.4 1.9-.4 3v7.1h-1.2l-.1-10.9z"/><path class="st1" d="M466.5 388.9H479v1h-13.8v-22.4h13.3v1h-12.1v9.2h11.4v1h-11.4v10.2zM496.9 370.2c-.5-.7-1.3-1.3-2.1-1.7-.9-.4-1.8-.6-2.9-.6-.7 0-1.4.1-2.1.3-.7.2-1.3.5-1.9.9-.5.4-1 .9-1.3 1.5s-.5 1.3-.5 2.2c0 1.2.3 2.1.9 2.7.6.7 1.3 1.2 2.2 1.6s1.9.8 2.9 1.1 2 .7 2.9 1.2c.9.5 1.6 1.1 2.2 1.8.6.8.9 1.8.9 3.1 0 1-.2 1.9-.6 2.7-.4.8-.9 1.4-1.5 1.9s-1.4.9-2.2 1.2c-.8.3-1.7.4-2.6.4-1.4 0-2.7-.2-3.8-.7-1.2-.5-2.1-1.2-2.9-2.1l.8-.8c.8.8 1.7 1.5 2.7 1.9s2.1.7 3.2.7c.7 0 1.5-.1 2.2-.3s1.3-.5 1.9-1c.5-.4 1-.9 1.3-1.6.3-.6.5-1.3.5-2.1 0-.9-.2-1.6-.5-2.2s-.8-1.1-1.4-1.5c-.6-.4-1.2-.7-1.9-1-.7-.3-1.5-.6-2.2-.8-.8-.3-1.5-.5-2.2-.9-.7-.3-1.4-.7-1.9-1.1-.6-.5-1-1-1.4-1.7-.3-.7-.5-1.5-.5-2.5s.2-1.8.6-2.6c.4-.8.9-1.4 1.6-1.9.6-.5 1.4-.9 2.2-1.1.8-.3 1.7-.4 2.6-.4 1.3 0 2.4.2 3.4.7s1.8 1.1 2.5 1.9l-1.1.8zM511.2 389.9H510v-21.3h-7.6v-1h16.4v1h-7.6v21.3z"/></g></g><g class="st0"><path class="st2" d="M128.4 147.9h-1.6v-29.8h-10.6v-1.5h22.9v1.5h-10.6l-.1 29.8zM145.8 146.5h17.6v1.5h-19.2v-31.2h18.6v1.5h-17v12.8h15.9v1.5h-15.9v13.9zM178.8 147.9h-1.6v-29.8h-10.7v-1.5h22.9v1.5h-10.6v29.8zM196.2 146.5h17.6v1.5h-19.2v-31.2h18.6v1.5h-17v12.8h15.9v1.5h-15.9v13.9zM222.3 147.9h-1.6v-31.3h8.8c1.3 0 2.5.1 3.7.4s2.3.7 3.2 1.3 1.7 1.4 2.3 2.4.9 2.3.9 3.9c0 1.4-.3 2.6-.8 3.5-.5 1-1.2 1.8-2 2.4s-1.8 1.1-2.8 1.4c-1 .3-2.1.5-3.2.5l9.4 15.6h-1.9l-9.2-15.4h-6.7l-.1 15.3zm0-16.8h7c2.8 0 4.9-.6 6.4-1.7s2.2-2.7 2.2-4.8c0-1.3-.2-2.3-.7-3.1-.5-.8-1.1-1.5-2-2-.8-.5-1.8-.9-2.9-1.1s-2.2-.3-3.4-.3h-6.7l.1 13zM247 116.6h8.8c1.2 0 2.4.1 3.5.4 1.2.2 2.2.6 3.2 1.2.9.6 1.7 1.3 2.2 2.3.6 1 .9 2.2.9 3.7 0 1-.2 1.9-.5 2.7-.3.8-.8 1.5-1.3 2.1-.6.6-1.2 1.1-1.9 1.5-.7.4-1.5.7-2.3.8v.1c.9.1 1.7.3 2.6.7.9.4 1.7.9 2.4 1.5.7.7 1.3 1.5 1.8 2.5s.7 2.1.7 3.5c0 1.6-.3 2.9-.9 4-.6 1.1-1.4 1.9-2.4 2.6-1 .7-2.1 1.1-3.4 1.4s-2.6.4-3.9.4H247v-31.4zm1.7 14.1h7.2c1 0 1.9-.1 2.9-.4 1-.2 1.8-.6 2.6-1.1s1.4-1.2 1.9-2 .7-1.8.7-2.9c0-1.2-.2-2.2-.7-3s-1.1-1.5-1.9-1.9c-.8-.5-1.7-.8-2.7-1s-2.1-.3-3.2-.3h-6.7l-.1 12.6zm0 15.8h7.5c1.3 0 2.5-.1 3.6-.4 1.1-.3 2.1-.7 2.9-1.2.8-.6 1.5-1.3 1.9-2.1.4-.8.7-1.9.7-3.2 0-1.3-.3-2.4-.8-3.3-.5-.9-1.2-1.7-2-2.3s-1.8-1-2.8-1.3c-1-.3-2.1-.4-3.2-.4h-8v14.2h.2zM305.2 132.3c0 2.4-.4 4.6-1.2 6.6s-1.9 3.8-3.4 5.2c-1.4 1.5-3.2 2.6-5.1 3.4-2 .8-4.1 1.2-6.4 1.2s-4.5-.4-6.5-1.2c-2-.8-3.7-2-5.1-3.4-1.4-1.5-2.6-3.2-3.4-5.2s-1.2-4.2-1.2-6.6c0-2.4.4-4.6 1.2-6.6.8-2 1.9-3.8 3.4-5.2 1.4-1.5 3.2-2.6 5.1-3.4 2-.8 4.1-1.2 6.5-1.2 2.3 0 4.5.4 6.4 1.2 2 .8 3.7 2 5.1 3.4 1.4 1.5 2.6 3.2 3.4 5.2s1.2 4.2 1.2 6.6zm-1.8 0c0-2.1-.3-4-1-5.8-.7-1.8-1.7-3.4-2.9-4.8-1.3-1.4-2.8-2.4-4.6-3.2s-3.7-1.2-5.9-1.2-4.2.4-5.9 1.2c-1.8.8-3.3 1.9-4.6 3.2-1.3 1.4-2.2 3-2.9 4.8-.7 1.8-1 3.8-1 5.8 0 2.1.3 4 1 5.8.7 1.8 1.6 3.4 2.9 4.8 1.3 1.4 2.8 2.4 4.6 3.2 1.8.8 3.8 1.2 5.9 1.2 2.2 0 4.2-.4 5.9-1.2 1.8-.8 3.3-1.9 4.6-3.2 1.3-1.3 2.2-2.9 2.9-4.8.6-1.8 1-3.7 1-5.8zM314.2 147.9h-1.6v-31.3h8.8c1.3 0 2.5.1 3.7.4s2.3.7 3.2 1.3c.9.6 1.7 1.4 2.3 2.4s.9 2.3.9 3.9c0 1.4-.3 2.6-.8 3.5-.5 1-1.2 1.8-2 2.4s-1.8 1.1-2.8 1.4c-1 .3-2.1.5-3.2.5l9.4 15.6h-1.9l-9.2-15.4h-6.7l-.1 15.3zm0-16.8h7c2.8 0 4.9-.6 6.4-1.7s2.2-2.7 2.2-4.8c0-1.3-.2-2.3-.7-3.1-.5-.8-1.1-1.5-2-2-.8-.5-1.8-.9-2.9-1.1-1.1-.2-2.2-.3-3.4-.3h-6.7l.1 13zM369.7 132.3c0 2.4-.4 4.6-1.2 6.6s-1.9 3.8-3.4 5.2c-1.4 1.5-3.2 2.6-5.1 3.4-2 .8-4.1 1.2-6.4 1.2s-4.5-.4-6.5-1.2c-2-.8-3.7-2-5.1-3.4-1.4-1.5-2.6-3.2-3.4-5.2s-1.2-4.2-1.2-6.6c0-2.4.4-4.6 1.2-6.6.8-2 1.9-3.8 3.4-5.2 1.4-1.5 3.2-2.6 5.1-3.4 2-.8 4.1-1.2 6.5-1.2 2.3 0 4.5.4 6.4 1.2 2 .8 3.7 2 5.1 3.4 1.4 1.5 2.6 3.2 3.4 5.2s1.2 4.2 1.2 6.6zm-1.7 0c0-2.1-.3-4-1-5.8-.7-1.8-1.7-3.4-2.9-4.8-1.3-1.4-2.8-2.4-4.6-3.2s-3.7-1.2-5.9-1.2-4.2.4-5.9 1.2c-1.8.8-3.3 1.9-4.6 3.2-1.3 1.4-2.2 3-2.9 4.8-.7 1.8-1 3.8-1 5.8 0 2.1.3 4 1 5.8.7 1.8 1.6 3.4 2.9 4.8 1.3 1.4 2.8 2.4 4.6 3.2 1.8.8 3.8 1.2 5.9 1.2 2.2 0 4.2-.4 5.9-1.2 1.8-.8 3.3-1.9 4.6-3.2 1.3-1.3 2.2-2.9 2.9-4.8.7-1.8 1-3.7 1-5.8z"/></g></svg>